<svg xmlns="http://www.w3.org/2000/svg" viewBox="0 0 24 24">
  <path fill="currentcolor" fill-rule="evenodd" d="M4 5.75c-.69 0-1.25.56-1.25 1.25v10c0 .69.56 1.25 1.25 1.25h16c.69 0 1.25-.56 1.25-1.25V7c0-.69-.56-1.25-1.25-1.25H4ZM1.25 7A2.75 2.75 0 0 1 4 4.25h16A2.75 2.75 0 0 1 22.75 7v10A2.75 2.75 0 0 1 20 19.75H4A2.75 2.75 0 0 1 1.25 17V7Z" clip-rule="evenodd"/>
  <path fill="currentcolor" fill-rule="evenodd" d="M1.25 10A.75.75 0 0 1 2 9.25h20a.75.75 0 0 1 0 1.5H2a.75.75 0 0 1-.75-.75Z" clip-rule="evenodd"/>
</svg>
