<svg xmlns="http://www.w3.org/2000/svg" viewBox="0 0 24 24">
  <path fill="currentcolor" fill-rule="evenodd" d="M12 2.75A7.25 7.25 0 0 0 4.75 10c0 2.704 1.828 5.521 3.81 7.752A30.602 30.602 0 0 0 12 21.044a30.594 30.594 0 0 0 3.44-3.292c1.982-2.23 3.81-5.048 3.81-7.752A7.25 7.25 0 0 0 12 2.75ZM12 22l.45.6a.75.75 0 0 1-.9 0L12 22ZM5.813 3.813A8.75 8.75 0 0 1 20.75 10c0 3.296-2.172 6.479-4.19 8.748a32.119 32.119 0 0 1-4.01 3.776l-.072.055-.02.015-.005.004-.002.001S12.45 22.6 12 22l-.45.6-.003-.002-.005-.004-.02-.015a15.941 15.941 0 0 1-.335-.264 32.11 32.11 0 0 1-3.747-3.567C5.421 16.478 3.25 13.296 3.25 10a8.75 8.75 0 0 1 2.563-6.187Z" clip-rule="evenodd"/>
  <path fill="currentcolor" fill-rule="evenodd" d="M12 7.75a2.25 2.25 0 1 0 0 4.5 2.25 2.25 0 0 0 0-4.5ZM8.25 10a3.75 3.75 0 1 1 7.5 0 3.75 3.75 0 0 1-7.5 0Z" clip-rule="evenodd"/>
</svg>
