<svg xmlns="http://www.w3.org/2000/svg" viewBox="0 0 24 24">
  <path fill="currentcolor" fill-rule="evenodd" d="M2.25 9A.75.75 0 0 1 3 8.25h18a.75.75 0 0 1 .75.75v10A2.75 2.75 0 0 1 19 21.75H5A2.75 2.75 0 0 1 2.25 19V9Zm1.5.75V19A1.25 1.25 0 0 0 5 20.25h14A1.25 1.25 0 0 0 20.25 19V9.75H3.75Z" clip-rule="evenodd"/>
  <path fill="currentcolor" fill-rule="evenodd" d="M17.426 3.933a1.25 1.25 0 0 0-.66-.183H7.237a1.25 1.25 0 0 0-1.118.687L3.67 9.336a.75.75 0 0 1-1.34-.67l2.45-4.902A2.75 2.75 0 0 1 7.24 2.25h9.518-.003l.005.75v-.75h-.002a2.75 2.75 0 0 1 2.472 1.513l.001.003 2.44 4.9a.75.75 0 1 1-1.342.668L17.89 4.438v-.002a1.25 1.25 0 0 0-.464-.503Z" clip-rule="evenodd"/>
  <path fill="currentcolor" fill-rule="evenodd" d="M12 2.25a.75.75 0 0 1 .75.75v6a.75.75 0 0 1-1.5 0V3a.75.75 0 0 1 .75-.75Z" clip-rule="evenodd"/>
</svg>
