<svg xmlns="http://www.w3.org/2000/svg" viewBox="0 0 24 24">
  <path fill="currentcolor" fill-rule="evenodd" d="M3.606 1.362a.75.75 0 0 1 .73-.033L6 2.161l1.665-.832a.75.75 0 0 1 .67 0L10 2.161l1.665-.832a.75.75 0 0 1 .67 0L14 2.161l1.665-.832a.75.75 0 0 1 .67 0L18 2.161l1.665-.832A.75.75 0 0 1 20.75 2v20a.75.75 0 0 1-1.085.67L18 21.839l-1.665.833a.75.75 0 0 1-.67 0L14 21.839l-1.665.832a.75.75 0 0 1-.67 0L10 21.839l-1.665.832a.75.75 0 0 1-.67 0L6 21.839l-1.665.832A.75.75 0 0 1 3.25 22V2a.75.75 0 0 1 .356-.638ZM4.75 3.214v17.573l.915-.458a.75.75 0 0 1 .67 0L8 21.161l1.665-.832a.75.75 0 0 1 .67 0l1.665.832 1.665-.832a.75.75 0 0 1 .67 0l1.665.832 1.665-.832a.75.75 0 0 1 .67 0l.915.457V3.215l-.915.457a.75.75 0 0 1-.67 0L16 2.839l-1.665.832a.75.75 0 0 1-.67 0L12 2.839l-1.665.832a.75.75 0 0 1-.67 0L8 2.839l-1.665.832a.75.75 0 0 1-.67 0l-.915-.457Z" clip-rule="evenodd"/>
  <path fill="currentcolor" fill-rule="evenodd" d="M8.055 8.055A2.75 2.75 0 0 1 10 7.25h6.75v1.5H10a1.25 1.25 0 0 0 0 2.5h4a2.75 2.75 0 1 1 0 5.5H7.25v-1.5H14a1.25 1.25 0 0 0 0-2.5h-4a2.75 2.75 0 0 1-1.945-4.695Z" clip-rule="evenodd"/>
  <path fill="currentcolor" fill-rule="evenodd" d="M12.75 6.25v11.5h-1.5V6.25h1.5Z" clip-rule="evenodd"/>
</svg>
