<svg xmlns="http://www.w3.org/2000/svg" viewBox="0 0 24 24">
  <path fill="currentcolor" fill-rule="evenodd" d="M9.155 3.155c-.27.27-.405.589-.405.845v1.25h6.5V4c0-.256-.136-.575-.405-.845-.27-.27-.589-.405-.845-.405h-4c-.256 0-.575.136-.845.405ZM16.75 5.25V4c0-.744-.364-1.425-.845-1.905-.48-.48-1.161-.845-1.905-.845h-4c-.744 0-1.425.364-1.905.845-.48.48-.845 1.161-.845 1.905v1.25h-5v1.5h2V20c0 .744.364 1.425.845 1.905.48.48 1.161.845 1.905.845h10c.744 0 1.425-.364 1.905-.845.48-.48.845-1.161.845-1.905V6.75h2v-1.5h-5Zm0 1.5h-11V20c0 .256.136.575.405.845.27.27.589.405.845.405h10c.256 0 .575-.136.845-.405.27-.27.405-.589.405-.845V6.75h-1.5Zm-6 11v-7.5h-1.5v7.5h1.5Zm4-7.5v7.5h-1.5v-7.5h1.5Z" clip-rule="evenodd"/>
</svg>
