<svg xmlns="http://www.w3.org/2000/svg" viewBox="0 0 24 24">
  <path stroke="currentcolor" stroke-linecap="round" stroke-linejoin="round" stroke-width="1.2" d="M14 17h1"/>
  <path fill="currentcolor" fill-rule="evenodd" d="M2 4.25a.75.75 0 0 0-.75.75v12c0 .414.336.75.75.75h2.26a3.25 3.25 0 0 0 6.48 0H14c.09 0 .176-.016.256-.045a3.25 3.25 0 0 0 6.485.045H22a.75.75 0 0 0 .75-.75v-3.34a4.75 4.75 0 0 0-1.39-3.36l-1.83-1.83a.75.75 0 0 0-.53-.22h-4.25V5a.75.75 0 0 0-.75-.75H2Zm18.5 12h.75v-2.59a3.253 3.253 0 0 0-.95-2.3l-1.61-1.61h-3.94v6.017a3.25 3.25 0 0 1 5.75.483Zm-13-2a3.25 3.25 0 0 0-3 2H2.75V5.75h10.5v10.5H10.5a3.25 3.25 0 0 0-3-2Zm0 1.5a1.75 1.75 0 1 0 0 3.5 1.75 1.75 0 0 0 0-3.5Zm8.25 1.75a1.75 1.75 0 1 1 3.5 0 1.75 1.75 0 0 1-3.5 0Z" clip-rule="evenodd"/>
</svg>
