<?xml version="1.0" encoding="utf-8"?><svg xmlns="http://www.w3.org/2000/svg" xmlns:xlink="http://www.w3.org/1999/xlink"><symbol viewBox="0 0 24 24" id="icon-arrow-left" xmlns="http://www.w3.org/2000/svg"><path fill="currentcolor" fill-rule="evenodd" d="m13.06 5-7 7 7 7L12 20.06 3.94 12 12 3.94 13.06 5Z" clip-rule="evenodd"/><path fill="currentcolor" fill-rule="evenodd" d="M5.25 11.25h14.5v1.5H5.25v-1.5Z" clip-rule="evenodd"/></symbol><symbol viewBox="0 0 24 24" id="icon-arrow-right" xmlns="http://www.w3.org/2000/svg"><path fill="currentcolor" fill-rule="evenodd" d="M4.25 11.25h14.5v1.5H4.25v-1.5Z" clip-rule="evenodd"/><path fill="currentcolor" fill-rule="evenodd" d="M12 3.94 20.06 12 12 20.06 10.94 19l7-7-7-7L12 3.94Z" clip-rule="evenodd"/></symbol><symbol viewBox="0 0 24 24" id="icon-bag" xmlns="http://www.w3.org/2000/svg"><path stroke="currentcolor" stroke-width="1.5" fill="transparent" d="M4.75 7.75h14.5v11.5H4.75z"/><path stroke="currentcolor" stroke-width="1.5" fill="transparent" d="M9 8s0-4 3-4 3 4 3 4"/></symbol><symbol viewBox="0 0 24 24" id="icon-calendar" xmlns="http://www.w3.org/2000/svg"><path fill="currentcolor" fill-rule="evenodd" d="M5 4.75c-.69 0-1.25.56-1.25 1.25v14c0 .69.56 1.25 1.25 1.25h14c.69 0 1.25-.56 1.25-1.25V6c0-.69-.56-1.25-1.25-1.25H5ZM2.25 6A2.75 2.75 0 0 1 5 3.25h14A2.75 2.75 0 0 1 21.75 6v14A2.75 2.75 0 0 1 19 22.75H5A2.75 2.75 0 0 1 2.25 20V6Z" clip-rule="evenodd"/><path fill="currentcolor" fill-rule="evenodd" d="M16 1.25a.75.75 0 0 1 .75.75v4a.75.75 0 0 1-1.5 0V2a.75.75 0 0 1 .75-.75Zm-8 0a.75.75 0 0 1 .75.75v4a.75.75 0 0 1-1.5 0V2A.75.75 0 0 1 8 1.25ZM2.25 10A.75.75 0 0 1 3 9.25h18a.75.75 0 0 1 0 1.5H3a.75.75 0 0 1-.75-.75Z" clip-rule="evenodd"/></symbol><symbol viewBox="0 0 24 24" id="icon-check" xmlns="http://www.w3.org/2000/svg"><path fill="currentcolor" fill-rule="evenodd" d="M21.06 6 9.53 17.53a.75.75 0 0 1-1.06 0L2.94 12 4 10.94l5 5 11-11L21.06 6Z" clip-rule="evenodd"/></symbol><symbol viewBox="0 0 24 24" id="icon-chevron-down" xmlns="http://www.w3.org/2000/svg"><path stroke="currentcolor" fill="transparent" stroke-width="1.5" d="m6 9 6 6 6-6"/></symbol><symbol viewBox="0 0 24 24" id="icon-chevron-up" xmlns="http://www.w3.org/2000/svg"><path stroke="currentcolor" stroke-width="1.5" d="m18 15-6-6-6 6"/></symbol><symbol viewBox="0 0 24 24" id="icon-credit-card" xmlns="http://www.w3.org/2000/svg"><path fill="currentcolor" fill-rule="evenodd" d="M4 5.75c-.69 0-1.25.56-1.25 1.25v10c0 .69.56 1.25 1.25 1.25h16c.69 0 1.25-.56 1.25-1.25V7c0-.69-.56-1.25-1.25-1.25H4ZM1.25 7A2.75 2.75 0 0 1 4 4.25h16A2.75 2.75 0 0 1 22.75 7v10A2.75 2.75 0 0 1 20 19.75H4A2.75 2.75 0 0 1 1.25 17V7Z" clip-rule="evenodd"/><path fill="currentcolor" fill-rule="evenodd" d="M1.25 10A.75.75 0 0 1 2 9.25h20a.75.75 0 0 1 0 1.5H2a.75.75 0 0 1-.75-.75Z" clip-rule="evenodd"/></symbol><symbol viewBox="0 0 24 24" id="icon-info" xmlns="http://www.w3.org/2000/svg"><path fill="currentcolor" fill-rule="evenodd" d="M12 2.75a9.25 9.25 0 1 0 0 18.5 9.25 9.25 0 0 0 0-18.5ZM1.25 12C1.25 6.063 6.063 1.25 12 1.25S22.75 6.063 22.75 12 17.937 22.75 12 22.75 1.25 17.937 1.25 12Z" clip-rule="evenodd"/><path fill="currentcolor" fill-rule="evenodd" d="M12.75 11.25v5.5h-1.5v-5.5h1.5Zm-1.5-4h1.51v1.5h-1.51v-1.5Z" clip-rule="evenodd"/></symbol><symbol viewBox="0 0 24 24" id="icon-map-pin" xmlns="http://www.w3.org/2000/svg"><path fill="currentcolor" fill-rule="evenodd" d="M12 2.75A7.25 7.25 0 0 0 4.75 10c0 2.704 1.828 5.521 3.81 7.752A30.602 30.602 0 0 0 12 21.044a30.594 30.594 0 0 0 3.44-3.292c1.982-2.23 3.81-5.048 3.81-7.752A7.25 7.25 0 0 0 12 2.75ZM12 22l.45.6a.75.75 0 0 1-.9 0L12 22ZM5.813 3.813A8.75 8.75 0 0 1 20.75 10c0 3.296-2.172 6.479-4.19 8.748a32.119 32.119 0 0 1-4.01 3.776l-.072.055-.02.015-.005.004-.002.001S12.45 22.6 12 22l-.45.6-.003-.002-.005-.004-.02-.015a15.941 15.941 0 0 1-.335-.264 32.11 32.11 0 0 1-3.747-3.567C5.421 16.478 3.25 13.296 3.25 10a8.75 8.75 0 0 1 2.563-6.187Z" clip-rule="evenodd"/><path fill="currentcolor" fill-rule="evenodd" d="M12 7.75a2.25 2.25 0 1 0 0 4.5 2.25 2.25 0 0 0 0-4.5ZM8.25 10a3.75 3.75 0 1 1 7.5 0 3.75 3.75 0 0 1-7.5 0Z" clip-rule="evenodd"/></symbol><symbol viewBox="0 0 24 24" id="icon-minus" xmlns="http://www.w3.org/2000/svg"><path stroke="currentcolor" stroke-linejoin="round" stroke-width="1.5" d="M5 12h14"/></symbol><symbol viewBox="0 0 24 24" id="icon-package" xmlns="http://www.w3.org/2000/svg"><path fill="currentcolor" fill-rule="evenodd" d="M2.25 9A.75.75 0 0 1 3 8.25h18a.75.75 0 0 1 .75.75v10A2.75 2.75 0 0 1 19 21.75H5A2.75 2.75 0 0 1 2.25 19V9Zm1.5.75V19A1.25 1.25 0 0 0 5 20.25h14A1.25 1.25 0 0 0 20.25 19V9.75H3.75Z" clip-rule="evenodd"/><path fill="currentcolor" fill-rule="evenodd" d="M17.426 3.933a1.25 1.25 0 0 0-.66-.183H7.237a1.25 1.25 0 0 0-1.118.687L3.67 9.336a.75.75 0 0 1-1.34-.67l2.45-4.902A2.75 2.75 0 0 1 7.24 2.25h9.518-.003l.005.75v-.75h-.002a2.75 2.75 0 0 1 2.472 1.513l.001.003 2.44 4.9a.75.75 0 1 1-1.342.668L17.89 4.438v-.002a1.25 1.25 0 0 0-.464-.503Z" clip-rule="evenodd"/><path fill="currentcolor" fill-rule="evenodd" d="M12 2.25a.75.75 0 0 1 .75.75v6a.75.75 0 0 1-1.5 0V3a.75.75 0 0 1 .75-.75Z" clip-rule="evenodd"/></symbol><symbol viewBox="0 0 24 24" id="icon-plus" xmlns="http://www.w3.org/2000/svg"><path stroke="currentcolor" stroke-linejoin="round" stroke-width="1.5" d="M12 5v14m-7-7h14"/></symbol><symbol viewBox="0 0 24 24" id="icon-receipt" xmlns="http://www.w3.org/2000/svg"><path fill="currentcolor" fill-rule="evenodd" d="M3.606 1.362a.75.75 0 0 1 .73-.033L6 2.161l1.665-.832a.75.75 0 0 1 .67 0L10 2.161l1.665-.832a.75.75 0 0 1 .67 0L14 2.161l1.665-.832a.75.75 0 0 1 .67 0L18 2.161l1.665-.832A.75.75 0 0 1 20.75 2v20a.75.75 0 0 1-1.085.67L18 21.839l-1.665.833a.75.75 0 0 1-.67 0L14 21.839l-1.665.832a.75.75 0 0 1-.67 0L10 21.839l-1.665.832a.75.75 0 0 1-.67 0L6 21.839l-1.665.832A.75.75 0 0 1 3.25 22V2a.75.75 0 0 1 .356-.638ZM4.75 3.214v17.573l.915-.458a.75.75 0 0 1 .67 0L8 21.161l1.665-.832a.75.75 0 0 1 .67 0l1.665.832 1.665-.832a.75.75 0 0 1 .67 0l1.665.832 1.665-.832a.75.75 0 0 1 .67 0l.915.457V3.215l-.915.457a.75.75 0 0 1-.67 0L16 2.839l-1.665.832a.75.75 0 0 1-.67 0L12 2.839l-1.665.832a.75.75 0 0 1-.67 0L8 2.839l-1.665.832a.75.75 0 0 1-.67 0l-.915-.457Z" clip-rule="evenodd"/><path fill="currentcolor" fill-rule="evenodd" d="M8.055 8.055A2.75 2.75 0 0 1 10 7.25h6.75v1.5H10a1.25 1.25 0 0 0 0 2.5h4a2.75 2.75 0 1 1 0 5.5H7.25v-1.5H14a1.25 1.25 0 0 0 0-2.5h-4a2.75 2.75 0 0 1-1.945-4.695Z" clip-rule="evenodd"/><path fill="currentcolor" fill-rule="evenodd" d="M12.75 6.25v11.5h-1.5V6.25h1.5Z" clip-rule="evenodd"/></symbol><symbol viewBox="0 0 24 24" id="icon-save" xmlns="http://www.w3.org/2000/svg"><path stroke="currentcolor" stroke-linecap="round" stroke-width="1.5" d="M19 14c1.49-1.46 3-3.21 3-5.5A5.5 5.5 0 0 0 16.5 3c-1.76 0-3 .5-4.5 2-1.5-1.5-2.74-2-4.5-2A5.5 5.5 0 0 0 2 8.5c0 2.3 1.5 4.05 3 5.5l7 7 7-7Z"/></symbol><symbol viewBox="0 0 24 24" id="icon-search" xmlns="http://www.w3.org/2000/svg"><path stroke="currentcolor" stroke-linecap="round" fill="transparent" stroke-width="1.5" d="M11 19a8 8 0 1 0 0-16 8 8 0 0 0 0 16Z"/><path stroke="currentcolor" stroke-linecap="square" stroke-width="1.5" d="m21 21-4.3-4.3"/></symbol><symbol viewBox="0 0 24 24" id="icon-trash" xmlns="http://www.w3.org/2000/svg"><path fill="currentcolor" fill-rule="evenodd" d="M9.155 3.155c-.27.27-.405.589-.405.845v1.25h6.5V4c0-.256-.136-.575-.405-.845-.27-.27-.589-.405-.845-.405h-4c-.256 0-.575.136-.845.405ZM16.75 5.25V4c0-.744-.364-1.425-.845-1.905-.48-.48-1.161-.845-1.905-.845h-4c-.744 0-1.425.364-1.905.845-.48.48-.845 1.161-.845 1.905v1.25h-5v1.5h2V20c0 .744.364 1.425.845 1.905.48.48 1.161.845 1.905.845h10c.744 0 1.425-.364 1.905-.845.48-.48.845-1.161.845-1.905V6.75h2v-1.5h-5Zm0 1.5h-11V20c0 .256.136.575.405.845.27.27.589.405.845.405h10c.256 0 .575-.136.845-.405.27-.27.405-.589.405-.845V6.75h-1.5Zm-6 11v-7.5h-1.5v7.5h1.5Zm4-7.5v7.5h-1.5v-7.5h1.5Z" clip-rule="evenodd"/></symbol><symbol viewBox="0 0 24 24" id="icon-truck" xmlns="http://www.w3.org/2000/svg"><path stroke="currentcolor" stroke-linecap="round" stroke-linejoin="round" stroke-width="1.2" d="M14 17h1"/><path fill="currentcolor" fill-rule="evenodd" d="M2 4.25a.75.75 0 0 0-.75.75v12c0 .414.336.75.75.75h2.26a3.25 3.25 0 0 0 6.48 0H14c.09 0 .176-.016.256-.045a3.25 3.25 0 0 0 6.485.045H22a.75.75 0 0 0 .75-.75v-3.34a4.75 4.75 0 0 0-1.39-3.36l-1.83-1.83a.75.75 0 0 0-.53-.22h-4.25V5a.75.75 0 0 0-.75-.75H2Zm18.5 12h.75v-2.59a3.253 3.253 0 0 0-.95-2.3l-1.61-1.61h-3.94v6.017a3.25 3.25 0 0 1 5.75.483Zm-13-2a3.25 3.25 0 0 0-3 2H2.75V5.75h10.5v10.5H10.5a3.25 3.25 0 0 0-3-2Zm0 1.5a1.75 1.75 0 1 0 0 3.5 1.75 1.75 0 0 0 0-3.5Zm8.25 1.75a1.75 1.75 0 1 1 3.5 0 1.75 1.75 0 0 1-3.5 0Z" clip-rule="evenodd"/></symbol><symbol viewBox="0 0 24 24" id="icon-undo" xmlns="http://www.w3.org/2000/svg"><path fill="currentcolor" fill-rule="evenodd" d="m10.06 4-5 5 5 5L9 15.06 2.94 9 9 2.94 10.06 4Z" clip-rule="evenodd"/><path fill="currentcolor" fill-rule="evenodd" d="M3.75 8.25H14.5a6.25 6.25 0 1 1 0 12.5h-4.25v-1.5h4.25a4.75 4.75 0 0 0 0-9.5H3.75v-1.5Z" clip-rule="evenodd"/></symbol><symbol viewBox="0 0 24 24" id="icon-user" xmlns="http://www.w3.org/2000/svg"><path stroke="currentcolor" stroke-linecap="round" fill="transparent" stroke-linejoin="round" stroke-width="1.5" d="M12 13a5 5 0 1 0 0-10 5 5 0 0 0 0 10Z"/><path stroke="currentcolor" stroke-linejoin="round" fill="transparent" stroke-width="1.5" d="M20 21a8 8 0 0 0-16 0"/></symbol><symbol viewBox="0 0 24 24" id="icon-x" xmlns="http://www.w3.org/2000/svg"><path fill="currentcolor" fill-rule="evenodd" d="M19.06 6 6 19.06 4.94 18 18 4.94 19.06 6Z" clip-rule="evenodd"/><path fill="currentcolor" fill-rule="evenodd" d="M6 4.94 19.06 18 18 19.06 4.94 6 6 4.94Z" clip-rule="evenodd"/></symbol></svg>